 <svg
      width="50px"
      viewBox="0 0 67 67"
      fill="none"
      xmlns="http://www.w3.org/2000/svg"
    >
      <path
        fill-rule="evenodd"
        clip-rule="evenodd"
        d="M3.00316 43.3754L10.2947 43.3754C10.2947 43.3754 13.2129 37.8909 13.2129 28.7044C13.2129 22.6967 10.6504 14.3189 10.1912 12.8656L58.1894 66.2338L66.2296 58.1937L12.7092 10.0585L12.7253 10.0425C12.7253 10.0425 22.2446 13.0474 28.8699 13.0474C37.1459 13.0474 43.6276 10.0425 43.6276 10.0425V2.7509C43.6276 2.7509 32.0027 7.45564 23.705 7.01058C15.1495 6.55168 1.93323 0.175044 1.93323 0.175044L0.253701 1.85458C0.253701 1.85458 6.68605 15.0074 7.17604 23.5396C7.65017 31.7956 3.00316 43.3754 3.00316 43.3754Z"
        fill="black"
      />
    </svg>